#!OML:ASF F:\VICON\USERDATA\INSTALL\rory3\rory3.ASF
:FULLY-SPECIFIED
:DEGREES
1852
root 1.13496 17.1185 0.632527 5.52461 -3.37033 5.4559
lowerback -0.50509 -1.36671 6.47837
upperback -3.15582 -1.46448 13.0716
thorax -2.86846 -0.715819 10.3701
lowerneck -6.08514 -9.02494 -7.1805
upperneck 27.7209 -23.5835 33.8544
head 18.0747 -8.29869 12.9009
rclavicle 8.74653e-015 -6.36111e-015
rhumerus -325.909 -57.5099 -441.776
rradius 111.235
rwrist -58.7181
rhand -52.9557 -22.9725
rfingers 7.12502
rthumb -25.4233 -51.2971
lclavicle 8.74653e-015 -6.36111e-015
lhumerus 262.765 -57.8431 -214.427
lradius 91.7274
lwrist -15.5557
lhand -24.9433 3.08531
lfingers 7.12502
lthumb 1.56636 33.0593
rfemur -12.916 11.6277 6.91243
rtibia 26.9816
rfoot -19.5463 -8.24349
rtoes -16.3139
lfemur -11.6021 -8.49181 -27.2177
ltibia 23.9337
lfoot -16.7893 5.5627
ltoes -11.3965
1853
root 1.11731 17.1255 0.643974 5.57731 -3.34151 5.29466
lowerback -0.612356 -1.39787 6.19475
upperback -3.28431 -1.50955 12.9762
thorax -2.93135 -0.73134 10.4271
lowerneck -5.97623 -9.07698 -7.25548
upperneck 27.657 -23.6392 33.8672
head 18.0422 -8.34965 12.8996
rclavicle -1.71949e-014 -2.8625e-014
rhumerus -326.332 -57.5308 -441.522
rradius 111.302
rwrist -58.7295
rhand -52.9733 -22.5635
rfingers 7.12502
rthumb -25.4402 -50.8858
lclavicle -1.71949e-014 -2.8625e-014
lhumerus 262.801 -57.6707 -214.492
lradius 91.7697
lwrist -15.4751
lhand -25.0227 3.00252
lfingers 7.12502
lthumb 1.48961 32.9771
rfemur -12.7224 11.7035 7.17097
rtibia 26.636
rfoot -19.4559 -8.30212
rtoes -16.3872
lfemur -11.5321 -8.65545 -26.971
ltibia 23.7996
lfoot -16.8065 5.67078
ltoes -11.2935
1854
root 1.0974 17.1354 0.655522 5.6642 -3.33501 5.062
lowerback -0.828055 -1.38672 5.94323
upperback -3.36408 -1.51977 12.8958
thorax -2.88556 -0.731058 10.4759
lowerneck -5.91939 -9.12957 -7.27189
upperneck 27.5141 -23.6881 33.9309
head 17.9787 -8.38527 12.8951
rclavicle 1.98785e-015 -5.08889e-014
rhumerus -326.599 -57.5998 -441.4
rradius 111.377
rwrist -58.6945
rhand -52.9857 -22.1943
rfingers 7.12502
rthumb -25.452 -50.5149
lclavicle 1.98785e-015 -5.08889e-014
lhumerus 262.924 -57.6134 -214.641
lradius 91.7514
lwrist -15.5077
lhand -25.0478 2.82755
lfingers 7.12502
lthumb 1.4654 32.8023
rfemur -12.5691 11.7926 7.50915
rtibia 26.269
rfoot -19.254 -8.41788
rtoes -16.2873
lfemur -11.5107 -8.79654 -26.6364
ltibia 23.6978
lfoot -16.8261 5.73379
ltoes -10.9046
1855
root 1.07604 17.1453 0.665561 5.7813 -3.34328 4.82129
lowerback -1.07126 -1.33144 5.7254
upperback -3.43902 -1.4744 12.7621
thorax -2.82849 -0.704379 10.4414
lowerneck -5.90456 -9.17136 -7.27144
upperneck 27.3339 -23.7869 34.1654
head 18.0001 -8.43866 12.9919
rclavicle 1.63997e-015 4.77083e-014
rhumerus -326.893 -57.7828 -441.246
rradius 111.497
rwrist -58.6729
rhand -53.0855 -22.0726
rfingers 7.12502
rthumb -25.5477 -50.3795
lclavicle 1.63997e-015 4.77083e-014
lhumerus 262.832 -57.7342 -214.619
lradius 91.8095
lwrist -15.5418
lhand -25.0025 2.88551
lfingers 7.12502
lthumb 1.50917 32.8599
rfemur -12.4356 11.95 7.85289
rtibia 25.8523
rfoot -19.0166 -8.5649
rtoes -16.1218
lfemur -11.5324 -8.97964 -26.282
ltibia 23.6116
lfoot -16.8216 5.81582
ltoes -10.3488
1856
root 1.05625 17.1528 0.676208 5.82609 -3.34163 4.5996
lowerback -1.23129 -1.29931 5.52175
upperback -3.50704 -1.44853 12.6064
thorax -2.80964 -0.687861 10.3766
lowerneck -5.86639 -9.20715 -7.28691
upperneck 27.1701 -23.8888 34.4134
head 18.038 -8.49907 13.1091
rclavicle -2.78299e-015 -5.725e-014
rhumerus -327.421 -57.9457 -440.841
rradius 111.583
rwrist -58.7042
rhand -53.2943 -22.0232
rfingers 7.12502
rthumb -25.7477 -50.3013
lclavicle -2.78299e-015 -5.725e-014
lhumerus 262.658 -57.8503 -214.547
lradius 91.9497
lwrist -15.4778
lhand -24.7611 2.9861
lfingers 7.12502
lthumb 1.74228 32.9587
rfemur -12.1907 12.1128 8.18639
rtibia 25.3997
rfoot -18.8372 -8.69422
rtoes -15.7395
lfemur -11.4624 -9.1909 -25.969
ltibia 23.5095
lfoot -16.8418 6.13107
ltoes -11.5686
1857
root 1.03974 17.1643 0.689818 5.84118 -3.32685 4.32348
lowerback -1.3754 -1.29824 5.44293
upperback -3.58635 -1.45879 12.4745
thorax -2.81 -0.692229 10.2679
lowerneck -5.78658 -9.25444 -7.31735
upperneck 27.0596 -23.9785 34.5454
head 18.0445 -8.55843 13.1635
rclavicle -1.49834e-014 4.45278e-014
rhumerus -327.988 -58.0436 -440.395
rradius 111.596
rwrist -58.8916
rhand -53.3921 -22.4234
rfingers 7.12502
rthumb -25.8413 -50.6878
lclavicle -1.49834e-014 4.45278e-014
lhumerus 262.715 -57.8193 -214.666
lradius 92.0138
lwrist -15.4906
lhand -24.5603 2.97198
lfingers 7.12502
lthumb 1.93624 32.9429
rfemur -11.8935 12.2902 8.58102
rtibia 24.9527
rfoot -18.6741 -8.83549
rtoes -15.5775
lfemur -11.3359 -9.34408 -25.619
ltibia 23.3844
lfoot -16.8593 6.44783
ltoes -13.1808
1858
root 1.02226 17.1754 0.70137 5.91377 -3.30623 4.13765
lowerback -1.54598 -1.29924 5.25916
upperback -3.69775 -1.47169 12.3153
thorax -2.82652 -0.695034 10.19
lowerneck -5.72931 -9.3035 -7.3259
upperneck 26.9802 -24.0774 34.645
head 18.0647 -8.61591 13.1954
rclavicle -1.98163e-014 6.67916e-014
rhumerus -328.358 -58.1689 -440.218
rradius 111.705
rwrist -59.0608
rhand -53.3546 -22.9613
rfingers 7.12502
rthumb -25.8054 -51.2309
lclavicle -1.98163e-014 6.67916e-014
lhumerus 262.766 -57.7605 -214.834
lradius 92.0933
lwrist -15.5294
lhand -24.4013 2.7781
lfingers 7.12502
lthumb 2.08977 32.7476
rfemur -11.6895 12.3684 8.85754
rtibia 24.5028
rfoot -18.4236 -8.95229
rtoes -15.4092
lfemur -11.3102 -9.47744 -25.3435
ltibia 23.2735
lfoot -16.8432 6.58788
ltoes -13.2009
1859
root 1.00226 17.1832 0.71119 5.98485 -3.27673 3.99833
lowerback -1.73953 -1.3022 4.97153
upperback -3.79268 -1.4924 12.1483
thorax -2.80854 -0.699532 10.163
lowerneck -5.66171 -9.32516 -7.36895
upperneck 26.8699 -24.1505 34.8357
head 18.0998 -8.67084 13.3024
rclavicle -9.74045e-015 8.5875e-014
rhumerus -328.662 -58.2844 -440.157
rradius 111.757
rwrist -59.0948
rhand -53.3102 -21.7626
rfingers 7.12502
rthumb -25.7629 -50.0385
lclavicle -9.74045e-015 8.5875e-014
lhumerus 262.679 -57.7819 -214.907
lradius 92.2489
lwrist -15.5025
lhand -24.296 2.63832
lfingers 7.12502
lthumb 2.19145 32.6068
rfemur -11.4795 12.406 9.09506
rtibia 24.053
rfoot -18.1127 -9.0787
rtoes -15.6171
lfemur -11.2928 -9.65754 -25.107
ltibia 23.192
lfoot -16.8642 6.7066
ltoes -12.8904
1860
root 0.981575 17.1904 0.721097 6.04447 -3.24616 3.77179
lowerback -1.91169 -1.29046 4.74796
upperback -3.86767 -1.49129 12.0286
thorax -2.78578 -0.694152 10.1535
lowerneck -5.61873 -9.37612 -7.46619
upperneck 26.7189 -24.2419 35.0193
head 18.1332 -8.7401 13.4023
rclavicle 1.78906e-015 -3.49861e-014
rhumerus -329.014 -58.2994 -439.964
rradius 111.673
rwrist -58.854
rhand -53.3211 -21.1544
rfingers 7.12502
rthumb -25.7733 -49.4288
lclavicle 1.78906e-015 -3.49861e-014
lhumerus 262.692 -57.8497 -214.955
lradius 92.3031
lwrist -15.5176
lhand -24.1129 2.53187
lfingers 7.12502
lthumb 2.36836 32.4985
rfemur -11.2655 12.5148 9.43491
rtibia 23.64
rfoot -17.9402 -9.18829
rtoes -15.7699
lfemur -11.2422 -9.77893 -24.784
ltibia 23.1243
lfoot -16.8804 6.88062
ltoes -13.2797
1861
root 0.963369 17.1969 0.731169 6.12041 -3.19755 3.47211
lowerback -2.09193 -1.28319 4.67338
upperback -3.943 -1.49629 11.8983
thorax -2.76225 -0.696085 10.044
lowerneck -5.61227 -9.41886 -7.48665
upperneck 26.5706 -24.3224 35.177
head 18.1456 -8.78996 13.4626
rclavicle -8.94531e-015 -4.45278e-014
rhumerus -329.347 -58.2705 -439.815
rradius 111.616
rwrist -58.3675
rhand -53.482 -23.4734
rfingers 7.12502
rthumb -25.9274 -51.7253
lclavicle -8.94531e-015 -4.45278e-014
lhumerus 262.748 -57.8963 -215.052
lradius 92.3256
lwrist -15.5423
lhand -23.9171 2.49774
lfingers 7.12502
lthumb 2.55745 32.4622
rfemur -11.0608 12.614 9.84938
rtibia 23.2262
rfoot -17.7824 -9.30759
rtoes -15.6655
lfemur -11.2203 -9.93195 -24.3865
ltibia 23.0858
lfoot -16.9429 7.04564
ltoes -13.6988
1862
root 0.943962 17.2035 0.740256 6.19399 -3.09429 3.28832
lowerback -2.26272 -1.30255 4.48983
upperback -4.04092 -1.53299 11.7196
thorax -2.7613 -0.711159 9.94429
lowerneck -5.58414 -9.44782 -7.52463
upperneck 26.4265 -24.3994 35.3767
head 18.178 -8.84477 13.5639
rclavicle 1.49089e-014 -6.04305e-014
rhumerus -329.425 -58.358 -439.949
rradius 111.608
rwrist -57.9823
rhand -53.5103 -26.4792
rfingers 7.12502
rthumb -25.9545 -54.7271
lclavicle 1.49089e-014 -6.04305e-014
lhumerus 262.711 -57.9141 -215.119
lradius 92.4365
lwrist -15.5766
lhand -23.8435 2.48667
lfingers 7.12502
lthumb 2.62851 32.4502
rfemur -10.8511 12.6613 10.1339
rtibia 22.8068
rfoot -17.6705 -9.32211
rtoes -15.0676
lfemur -11.2488 -10.181 -24.093
ltibia 23.0588
lfoot -16.9478 7.13693
ltoes -13.2625
1863
root 0.922353 17.2133 0.747763 6.26996 -3.00569 3.03597
lowerback -2.36638 -1.31855 4.33518
upperback -4.19236 -1.54986 11.5714
thorax -2.85849 -0.714654 9.86812
lowerneck -5.43515 -9.46826 -7.60293
upperneck 26.3224 -24.4453 35.532
head 18.1729 -8.90075 13.665
rclavicle -2.89232e-014 2.22639e-014
rhumerus -329.427 -58.5653 -440.156
rradius 111.584
rwrist -57.6808
rhand -53.1613 -26.4385
rfingers 7.12502
rthumb -25.6202 -54.735
lclavicle -2.89232e-014 2.22639e-014
lhumerus 262.63 -57.8532 -215.164
lradius 92.548
lwrist -15.7348
lhand -23.7765 2.43984
lfingers 7.12502
lthumb 2.69318 32.4026
rfemur -10.6614 12.7535 10.5036
rtibia 22.4045
rfoot -17.5704 -9.34056
rtoes -14.6861
lfemur -11.2794 -10.3232 -23.7157
ltibia 22.9982
lfoot -16.9148 7.20666
ltoes -13.5537
1864
root 0.901912 17.2214 0.755195 6.36244 -2.98604 2.85134
lowerback -2.48935 -1.30148 4.12135
upperback -4.33064 -1.5268 11.393
thorax -2.93506 -0.697076 9.79161
lowerneck -5.28674 -9.51397 -7.68194
upperneck 26.1639 -24.5149 35.7062
head 18.1508 -8.96825 13.7578
rclavicle -8.05078e-015 4.77083e-014
rhumerus -329.562 -58.8816 -440.251
rradius 111.528
rwrist -57.4102
rhand -53.019 -25.5524
rfingers 7.12502
rthumb -25.4839 -53.8684
lclavicle -8.05078e-015 4.77083e-014
lhumerus 262.518 -57.8549 -215.184
lradius 92.6136
lwrist -15.9362
lhand -23.595 2.24377
lfingers 7.12502
lthumb 2.86852 32.2042
rfemur -10.5159 12.8554 10.7846
rtibia 22.003
rfoot -17.3644 -9.48997
rtoes -14.9695
lfemur -11.3067 -10.4056 -23.423
ltibia 22.9087
lfoot -16.8945 7.34377
ltoes -13.932
1865
root 0.883207 17.2263 0.764969 6.42541 -2.96136 2.7217
lowerback -2.548 -1.27367 3.90394
upperback -4.52383 -1.47547 11.2126
thorax -3.11038 -0.662809 9.72057
lowerneck -5.04931 -9.57264 -7.91866
upperneck 25.9889 -24.5828 35.9034
head 18.1381 -9.06711 13.9132
rclavicle 4.37326e-015 2.54444e-014
rhumerus -330.198 -59.1877 -439.841
rradius 111.552
rwrist -57.3102
rhand -53.0993 -27.2896
rfingers 7.12502
rthumb -25.5609 -55.5946
lclavicle 4.37326e-015 2.54444e-014
lhumerus 262.255 -57.7489 -214.993
lradius 92.6779
lwrist -15.9975
lhand -23.3651 2.10549
lfingers 7.12502
lthumb 3.09051 32.0628
rfemur -10.3193 12.9323 11.0064
rtibia 21.6093
rfoot -17.1682 -9.60413
rtoes -15.0615
lfemur -11.2779 -10.5844 -23.2075
ltibia 22.8242
lfoot -16.8718 7.51974
ltoes -14.2127
1866
root 0.8656 17.233 0.775172 6.48119 -2.87441 2.4973
lowerback -2.50571 -1.25769 3.84447
upperback -4.84179 -1.41487 11.0495
thorax -3.48101 -0.624071 9.58661
lowerneck -4.60271 -9.62268 -8.26748
upperneck 25.8894 -24.6439 36.085
head 18.1296 -9.19737 14.1248
rclavicle 2.48481e-014 -1.39944e-013
rhumerus -331.358 -59.4795 -438.892
rradius 111.504
rwrist -57.028
rhand -52.5742 -29.747
rfingers 7.12502
rthumb -25.0578 -58.1232
lclavicle 2.48481e-014 -1.39944e-013
lhumerus 261.633 -57.5145 -214.393
lradius 92.704
lwrist -15.8749
lhand -23.3337 2.12591
lfingers 7.12502
lthumb 3.12081 32.0828
rfemur -10.0961 12.9789 11.3381
rtibia 21.226
rfoot -16.9862 -9.67821
rtoes -14.7322
lfemur -11.2269 -10.8205 -22.8871
ltibia 22.7534
lfoot -16.8564 7.67386
ltoes -14.1852
